<?xml version="1.0" encoding="utf-8"?>
<!-- Generator: Adobe Illustrator 16.2.0, SVG Export Plug-In . SVG Version: 6.00 Build 0)  -->
<!DOCTYPE svg PUBLIC "-//W3C//DTD SVG 1.1//EN" "http://www.w3.org/Graphics/SVG/1.1/DTD/svg11.dtd">
<svg version="1.1" id="Layer_1" xmlns="http://www.w3.org/2000/svg" xmlns:xlink="http://www.w3.org/1999/xlink" x="0px" y="0px"
	 width="269.87px" height="141.93px" viewBox="0 0 269.87 141.93" enable-background="new 0 0 269.87 141.93" xml:space="preserve">
<g>
	<path fill-rule="evenodd" clip-rule="evenodd" fill="#663100" d="M266.348,52.406c0,23.756-58.273,44.876-131.218,44.876
		S8.031,76.162,8.031,52.406c0-23.757,52.755-44.863,125.699-44.863C206.676,7.543,266.348,28.649,266.348,52.406z"/>
	<linearGradient id="SVGID_1_" gradientUnits="userSpaceOnUse" x1="0.1953" y1="52.5938" x2="270.0645" y2="52.5938">
		<stop  offset="0" style="stop-color:#BB862A"/>
		<stop  offset="0.02" style="stop-color:#BB862A"/>
		<stop  offset="0.07" style="stop-color:#D7B05B"/>
		<stop  offset="0.12" style="stop-color:#B76C28"/>
		<stop  offset="0.46" style="stop-color:#F1EC8E"/>
		<stop  offset="0.62" style="stop-color:#ECE286"/>
		<stop  offset="0.86" style="stop-color:#B76C28"/>
		<stop  offset="0.92" style="stop-color:#D2A551"/>
		<stop  offset="0.98" style="stop-color:#DBB962"/>
		<stop  offset="1" style="stop-color:#DBB962"/>
	</linearGradient>
	<path fill-rule="evenodd" clip-rule="evenodd" fill="url(#SVGID_1_)" d="M135.13,0.264h0.006v0.019
		c36.489,0.001,69.593,5.422,93.612,14.186c25.512,9.309,41.295,22.753,41.298,38.123h0.019v0.003v0.002h-0.019
		c-0.002,15.371-15.786,28.816-41.3,38.125c-24.018,8.762-57.119,14.184-93.604,14.185v0.019h-0.013v-9.763h0.013v0.019
		c35.317-0.001,67.235-5.203,90.285-13.613c21.556-7.863,34.892-18.144,34.893-28.971h-0.019v-0.002v-0.003h0.019
		c-0.002-10.826-13.336-21.105-34.891-28.97c-23.051-8.41-54.972-13.613-90.294-13.613v0.02h-0.006V0.264L135.13,0.264z
		 M135.13,0.264h-0.013v0.019C98.632,0.283,65.531,5.705,41.514,14.467C16,23.775,0.216,37.221,0.214,52.592H0.195v0.002v0.003
		h0.019C0.217,67.968,16,81.411,41.512,90.72c24.02,8.764,57.123,14.185,93.611,14.186v0.019h0.007l0,0v-9.763l0,0h-0.007v0.019
		c-35.321,0-67.242-5.203-90.293-13.613C23.275,73.702,9.941,63.424,9.939,52.597h0.019v-0.003v-0.002H9.939
		C9.94,41.765,23.276,31.485,44.832,23.621c23.049-8.409,54.967-13.612,90.285-13.613v0.02h0.013l0,0V0.264L135.13,0.264
		L135.13,0.264z"/>
	<linearGradient id="SVGID_2_" gradientUnits="userSpaceOnUse" x1="26.1094" y1="19.2632" x2="244.1497" y2="85.9248">
		<stop  offset="0" style="stop-color:#BB862A"/>
		<stop  offset="0.02" style="stop-color:#BB862A"/>
		<stop  offset="0.1" style="stop-color:#E7D378"/>
		<stop  offset="0.2" style="stop-color:#B76C28"/>
		<stop  offset="0.36" style="stop-color:#F1EC8E"/>
		<stop  offset="0.6" style="stop-color:#ECE286"/>
		<stop  offset="0.76" style="stop-color:#B76C28"/>
		<stop  offset="0.87" style="stop-color:#DEC069"/>
		<stop  offset="0.98" style="stop-color:#DBB962"/>
		<stop  offset="1" style="stop-color:#DBB962"/>
	</linearGradient>
	<path fill-rule="evenodd" clip-rule="evenodd" fill="url(#SVGID_2_)" d="M135.13,12.635h0.007v0.005
		c32.556,0.001,62.045,4.372,83.398,11.438c21.716,7.186,35.149,17.258,35.152,28.512h0.004v0.003v0.002h-0.004
		c-0.002,11.256-13.438,21.329-35.154,28.516c-21.353,7.065-50.838,11.437-83.39,11.438v0.004h-0.014l0,0v-2.17l0,0h0.014v0.004
		c32.306-0.001,61.55-4.333,82.712-11.336c20.8-6.883,33.669-16.246,33.67-26.456h-0.004v-0.002V52.59h0.004
		c-0.001-10.208-12.868-19.57-33.668-26.453c-21.164-7.003-50.411-11.336-82.721-11.336v0.004h-0.007l0,0V12.635L135.13,12.635
		L135.13,12.635z M135.13,92.553v-2.17h-0.007v0.004c-32.311,0-61.558-4.333-82.721-11.336
		c-20.799-6.883-33.667-16.246-33.668-26.455h0.004v-0.003V52.59h-0.004c0.001-10.208,12.869-19.571,33.67-26.453
		c21.162-7.003,50.406-11.335,82.712-11.336v0.004h0.014v-2.17h-0.014v0.005c-32.552,0.001-62.037,4.372-83.39,11.438
		C30.01,31.263,16.574,41.336,16.572,52.59h-0.004v0.003v0.003h0.004c0.002,11.255,13.438,21.328,35.152,28.514
		c21.354,7.066,50.843,11.438,83.398,11.439v0.004H135.13L135.13,92.553z"/>
	<linearGradient id="SVGID_3_" gradientUnits="userSpaceOnUse" x1="244.0029" y1="133.1387" x2="248.5174" y2="134.5189">
		<stop  offset="0" style="stop-color:#BB862A"/>
		<stop  offset="0.02" style="stop-color:#BB862A"/>
		<stop  offset="0.08" style="stop-color:#B76C28"/>
		<stop  offset="0.36" style="stop-color:#F1EC8E"/>
		<stop  offset="0.6" style="stop-color:#ECE286"/>
		<stop  offset="0.86" style="stop-color:#B76C28"/>
		<stop  offset="0.98" style="stop-color:#DBB962"/>
		<stop  offset="1" style="stop-color:#DBB962"/>
	</linearGradient>
	<path fill-rule="evenodd" clip-rule="evenodd" fill="url(#SVGID_3_)" d="M247.485,125.366c-1.888,4.969-3.776,9.938-5.665,14.907
		c0.959,1.626,2.357,1.953,4.132,1.779l4.888-15.133L247.485,125.366z"/>
	<g>
		<path fill-rule="evenodd" clip-rule="evenodd" fill="#663100" d="M254.369,88.641c-22.838-2.604-34.112,19.45-51.149,34.25
			c-7.608,6.608-19.288-2.155-26.51-6.506c-5.232-3.151-8.413-4.144-9.979,5.172c-0.755,4.494-5.021-5.378-13.306-1.163
			c-6.308,3.208-8.574,2.324-12.306,1.022c1.604,4.275,5.789,7.056,9.019,7.292c-3.588,3.562-5.515,4.715-10.029,3.587
			c2.321,8.361,13.061,0.998,18.698,1.785c5.638,0.789,6.581,5.858,9.007,4.89c2.426-0.97,0.684-8.94,6.112-6.073
			c9.921,5.241,17.75,9.739,24.936,8.883c5.902-0.703,13.889-6.638,20.894-18.233C227.18,111.256,247.975,86.684,254.369,88.641z"/>
		<path fill="#EFEB8E" d="M197.061,142.104c-2.872,0-6.02-0.747-9.904-2.351c-3.495-1.443-7.301-3.463-11.33-5.602
			c-0.658-0.35-1.325-0.703-2.002-1.061c-0.746-0.395-1.387-0.594-1.906-0.594c-1.497,0-1.898,1.664-2.323,3.426
			c-0.353,1.463-0.685,2.845-1.698,3.25c-0.23,0.092-0.46,0.139-0.684,0.139c-0.906,0-1.621-0.725-2.525-1.643
			c-1.297-1.315-2.91-2.952-5.91-3.371c-0.275-0.039-0.576-0.059-0.895-0.059c-1.706,0-3.741,0.538-5.896,1.108
			c-2.228,0.589-4.531,1.198-6.538,1.198c-1.397,0-2.51-0.293-3.399-0.896c-1.024-0.694-1.729-1.772-2.152-3.298l-0.101-0.363
			l0.365,0.091c1.104,0.276,2.043,0.41,2.868,0.41c2.434,0,4.121-1.167,6.624-3.614c-1.557-0.223-3.268-0.981-4.768-2.125
			c-1.278-0.976-3.005-2.679-3.973-5.259l-0.164-0.439l0.63,0.22c1.764,0.616,3.157,1.104,4.843,1.104
			c1.95,0,4.141-0.673,7.104-2.18c1.432-0.728,2.865-1.097,4.262-1.097c2.793,0,4.91,1.425,6.455,2.466
			c0.774,0.521,1.443,0.972,1.853,0.972c0.134,0,0.448,0,0.619-1.019c0.456-2.712,1.06-4.622,1.847-5.839
			c0.758-1.172,1.709-1.741,2.906-1.741c1.501,0,3.307,0.902,5.557,2.258c0.811,0.488,1.674,1.029,2.587,1.603
			c5.151,3.232,11.563,7.256,17.26,7.256c0.001,0,0.001,0,0.002,0c2.468-0.001,4.622-0.785,6.402-2.331
			c4.527-3.933,8.678-8.412,12.692-12.744c10.373-11.195,20.172-21.771,34.952-21.771c0.859,0,1.74,0.037,2.618,0.109
			c0.356-0.023,0.688,0.004,0.989,0.081l1.91,0.158l-1.13,0.078l1.611,0.494l-2.374-0.271c-0.336-0.038-0.676-0.071-1.01-0.1
			c-1.687,0.125-4.114,1.467-7.217,3.99c-2.748,2.235-6.04,5.433-9.52,9.248c-6.318,6.926-13.012,15.631-16.654,21.662
			c-3.3,5.462-7.071,10.046-10.907,13.256c-3.53,2.954-7.039,4.711-10.148,5.082C198.294,142.068,197.679,142.104,197.061,142.104z
			 M171.918,132.058c0.6,0,1.29,0.211,2.111,0.646c0.678,0.357,1.345,0.711,2.003,1.061c8.315,4.414,14.885,7.9,21.028,7.9l0,0
			c0.602,0,1.198-0.034,1.775-0.104c3.024-0.359,6.454-2.083,9.919-4.982c3.799-3.179,7.538-7.725,10.813-13.146
			c3.656-6.054,10.369-14.786,16.705-21.731c3.97-4.352,10.883-11.377,15.514-13.033c-15.186-0.528-25.142,10.219-35.697,21.611
			c-4.022,4.34-8.182,8.828-12.727,12.777c-1.862,1.617-4.113,2.438-6.69,2.438c0,0-0.001,0-0.002,0
			c-5.823,0-12.294-4.06-17.493-7.323c-0.912-0.571-1.773-1.111-2.581-1.599c-2.187-1.317-3.93-2.194-5.329-2.194
			c-1.051,0-1.857,0.489-2.537,1.541c-0.754,1.165-1.336,3.021-1.782,5.673c-0.1,0.595-0.317,1.385-1.053,1.385
			c-0.544,0-1.195-0.438-2.098-1.046c-1.499-1.01-3.551-2.392-6.21-2.392c-1.327,0-2.693,0.353-4.063,1.049
			c-3.027,1.54-5.279,2.228-7.303,2.228c-1.668,0-3.099-0.47-4.718-1.033c1.687,3.934,5.653,6.486,8.65,6.705l0.481,0.036
			l-0.343,0.34c-2.776,2.755-4.57,4.066-7.263,4.066c-0.767,0.001-1.621-0.109-2.602-0.333c0.779,2.392,2.384,3.51,5.02,3.51
			c1.95,0,4.226-0.602,6.426-1.184c2.183-0.578,4.244-1.123,6.008-1.123c0.338,0,0.66,0.021,0.955,0.063
			c3.147,0.439,4.891,2.207,6.163,3.498c0.832,0.844,1.489,1.511,2.212,1.511c0.17,0,0.34-0.034,0.52-0.106
			c0.803-0.32,1.11-1.596,1.436-2.944C169.593,134.057,170.074,132.058,171.918,132.058z"/>
	</g>
	<g>
		<path fill-rule="evenodd" clip-rule="evenodd" fill="#663100" d="M14.337,89.031c22.838-2.604,33.804,19.201,50.841,34.001
			c7.607,6.608,19.288-2.155,26.51-6.505c5.232-3.152,8.413-4.145,9.979,5.171c0.755,4.494,5.021-5.378,13.305-1.163
			c6.309,3.209,8.576,2.324,12.307,1.022c-1.604,4.275-5.789,7.056-9.019,7.292c3.587,3.562,5.515,4.715,10.029,3.586
			c-2.321,8.362-13.062,0.999-18.698,1.787c-5.637,0.787-6.582,5.857-9.007,4.889c-2.426-0.969-0.683-8.94-6.112-6.072
			c-9.921,5.24-17.75,9.738-24.936,8.882c-5.902-0.703-13.889-6.638-20.894-18.233C41.218,111.398,20.732,87.074,14.337,89.031z"/>
		<path fill="#EFEB8E" d="M71.336,142.246c-0.618,0-1.232-0.036-1.827-0.106c-3.108-0.37-6.618-2.128-10.148-5.082
			c-3.836-3.21-7.607-7.794-10.907-13.256c-3.648-6.04-10.28-14.695-16.502-21.536c-3.488-3.836-6.654-6.92-9.411-9.164
			c-3.069-2.498-5.479-3.828-7.159-3.953c-0.338,0.028-0.68,0.063-1.02,0.102l-2.374,0.271l1.616-0.495l-1.119-0.077l1.896-0.157
			c0.303-0.078,0.639-0.106,0.997-0.083c0.887-0.073,1.776-0.11,2.644-0.11c14.72,0,24.389,10.457,34.626,21.527
			c3.999,4.324,8.135,8.797,12.676,12.741c1.78,1.547,3.935,2.331,6.402,2.331c5.697,0,12.11-4.023,17.264-7.256
			c0.912-0.573,1.775-1.114,2.586-1.603c2.249-1.355,4.055-2.258,5.556-2.258c1.198,0,2.148,0.569,2.906,1.741
			c0.787,1.217,1.391,3.127,1.847,5.84c0.171,1.018,0.485,1.018,0.619,1.018c0.409,0,1.078-0.45,1.852-0.972
			c1.546-1.04,3.663-2.466,6.457-2.466c1.396,0,2.83,0.369,4.26,1.097c2.964,1.507,5.154,2.18,7.104,2.18
			c1.687,0,3.079-0.487,4.843-1.104l0.63-0.22l-0.165,0.439c-0.967,2.58-2.693,4.283-3.972,5.258
			c-1.5,1.145-3.211,1.904-4.769,2.126c2.504,2.447,4.191,3.614,6.625,3.614c0.825,0,1.764-0.134,2.867-0.41l0.367-0.092
			l-0.102,0.363c-0.424,1.525-1.127,2.604-2.152,3.299c-0.891,0.603-2.002,0.896-3.4,0.896c-2.006,0-4.311-0.609-6.538-1.198
			c-2.153-0.57-4.188-1.108-5.894-1.108c-0.318,0-0.62,0.02-0.896,0.059c-3,0.419-4.614,2.056-5.91,3.371
			c-0.904,0.917-1.619,1.642-2.526,1.643c-0.223,0-0.453-0.047-0.683-0.139c-1.013-0.405-1.347-1.786-1.698-3.249
			c-0.425-1.763-0.826-3.427-2.323-3.427c-0.519,0-1.16,0.199-1.906,0.594c-0.677,0.357-1.344,0.711-2.001,1.061
			c-4.029,2.139-7.836,4.159-11.331,5.602C77.355,141.499,74.209,142.246,71.336,142.246z M16.926,89.057
			c4.604,1.646,11.433,8.604,15.352,12.913c6.238,6.86,12.891,15.542,16.553,21.604c3.274,5.421,7.014,9.967,10.813,13.146
			c3.465,2.898,6.895,4.622,9.918,4.982c0.578,0.068,1.175,0.104,1.775,0.104c6.145,0,12.713-3.486,21.029-7.901
			c0.658-0.349,1.326-0.703,2.003-1.062c0.821-0.434,1.512-0.645,2.111-0.645c1.844,0,2.325,2,2.75,3.764
			c0.325,1.35,0.632,2.624,1.435,2.944c0.181,0.072,0.351,0.106,0.52,0.106c0.724,0,1.381-0.666,2.213-1.511
			c1.272-1.29,3.016-3.059,6.163-3.498c0.296-0.042,0.617-0.063,0.956-0.063c1.763,0,3.824,0.545,6.006,1.122
			c2.201,0.582,4.477,1.185,6.426,1.185c2.637-0.001,4.24-1.118,5.021-3.511c-0.98,0.225-1.835,0.334-2.601,0.334
			c-2.693,0-4.488-1.311-7.264-4.066l-0.342-0.34l0.48-0.035c2.996-0.22,6.964-2.772,8.65-6.706
			c-1.619,0.563-3.049,1.033-4.718,1.033c-2.022,0-4.275-0.687-7.304-2.228c-1.368-0.695-2.734-1.049-4.061-1.049
			c-2.66,0-4.713,1.382-6.211,2.392c-0.902,0.607-1.555,1.046-2.098,1.046c-0.735,0-0.953-0.79-1.053-1.385
			c-0.445-2.652-1.029-4.508-1.782-5.673c-0.68-1.052-1.485-1.541-2.537-1.541c-1.399,0-3.143,0.878-5.329,2.194
			c-0.808,0.486-1.668,1.026-2.579,1.599c-5.2,3.263-11.673,7.323-17.497,7.323c-2.577,0-4.828-0.82-6.691-2.438
			c-4.559-3.96-8.702-8.441-12.709-12.774C42.153,99.426,32.548,89.037,18.021,89.037C17.659,89.037,17.293,89.044,16.926,89.057z"
			/>
	</g>
	<linearGradient id="SVGID_4_" gradientUnits="userSpaceOnUse" x1="21.0947" y1="134.6348" x2="25.354" y2="133.2508">
		<stop  offset="0" style="stop-color:#BB862A"/>
		<stop  offset="0.02" style="stop-color:#BB862A"/>
		<stop  offset="0.08" style="stop-color:#B76C28"/>
		<stop  offset="0.36" style="stop-color:#F1EC8E"/>
		<stop  offset="0.6" style="stop-color:#ECE286"/>
		<stop  offset="0.86" style="stop-color:#B76C28"/>
		<stop  offset="0.98" style="stop-color:#DBB962"/>
		<stop  offset="1" style="stop-color:#DBB962"/>
	</linearGradient>
	<path fill-rule="evenodd" clip-rule="evenodd" fill="url(#SVGID_4_)" d="M22.003,125.466c1.889,4.969,3.776,9.938,5.665,14.908
		c-0.959,1.625-2.356,1.952-4.131,1.778l-4.888-15.133L22.003,125.466z"/>
	<path fill-rule="evenodd" clip-rule="evenodd" fill="#663100" d="M134.808,107.222c40.727,1.266,74.243,10.761,108.968,27.592
		c3.689,1.44,7.334,2.193,10.792,1.36l11.283-33.541c-3.407,3.242-6.181,4.127-11.755,2.031
		C214.19,83.176,172.502,74.4,134.808,73.668C97.113,74.4,55.425,83.176,15.52,104.664c-5.574,2.096-8.348,1.211-11.756-2.031
		l11.284,33.541c3.457,0.833,7.103,0.08,10.792-1.36C60.564,117.982,94.08,108.487,134.808,107.222z"/>
	<path fill="#EFEB8E" d="M258.915,109.469c-0.615,0-1.259-0.059-1.933-0.177c-2.205-0.389-4.655-1.396-7.28-2.993
		c-35.937-19.351-73.519-28.87-114.896-29.105c-41.374,0.235-78.956,9.755-114.893,29.105c-2.468,1.502-5.144,2.504-7.534,2.823
		c-2.847,0.38-5.267-0.206-6.998-1.694l0.477-0.556c1.569,1.348,3.791,1.875,6.425,1.523c2.295-0.306,4.872-1.274,7.258-2.728
		l0.017-0.01c9.699-5.223,19.719-9.803,29.781-13.612c9.539-3.611,19.387-6.632,29.268-8.979c9.31-2.212,18.917-3.889,28.556-4.983
		c9.007-1.023,18.308-1.569,27.645-1.622c9.341,0.053,18.642,0.599,27.648,1.622c9.639,1.095,19.246,2.771,28.556,4.983
		c9.881,2.348,19.729,5.368,29.267,8.979c10.063,3.81,20.083,8.39,29.781,13.612l0.017,0.01c2.515,1.531,4.947,2.535,7.035,2.902
		c2.531,0.445,4.607-0.01,6.172-1.354l0.478,0.556C262.444,108.901,260.82,109.469,258.915,109.469z"/>
	<path fill="#EFEB8E" d="M17.413,134.269c-0.876,0-1.745-0.091-2.603-0.298l0.172-0.712c3.407,0.821,7.096-0.318,10.574-1.675
		c7.882-4.094,15.934-7.782,23.931-10.965c8.624-3.433,17.44-6.378,26.202-8.754c9.361-2.538,18.932-4.5,28.445-5.831
		c10.095-1.412,20.414-2.154,30.671-2.206c10.261,0.052,20.58,0.794,30.675,2.206c9.514,1.331,19.083,3.293,28.444,5.831
		c8.763,2.376,17.578,5.321,26.203,8.754c7.997,3.183,16.048,6.871,23.93,10.965c3.11,1.213,7.134,2.488,10.717,1.625l0.171,0.713
		c-0.878,0.212-1.778,0.303-2.682,0.303c-2.99,0.001-6.023-1.002-8.49-1.965l-0.036-0.017
		c-35.007-18.182-71.657-27.495-108.932-27.683c-37.271,0.188-73.922,9.501-108.929,27.683l-0.035,0.017
		C23.1,133.329,20.225,134.269,17.413,134.269z"/>
	<g>
		<path fill-rule="evenodd" clip-rule="evenodd" fill="#663100" d="M252.476,93.895l1.101-3.614
			c5.066-4.533,11.981,1.921,12.713,7.747c0.729,5.795-5.448,11.855-17.016,4.135l3.154-8.418c0.236,4.296,1.597,9.54,7.146,9.092
			c3.506-0.283,5.416-4.337,2.059-8.37c-5.063-6.083-9.305,3.069-3.014,4.981l-1.211,3.234c-0.906-0.113-2.42-1.165-3.143-2.216
			C252.988,98.604,252.452,96.173,252.476,93.895z"/>
		<path fill="#EFEB8E" d="M259.107,106.029c-2.943,0-6.293-1.239-9.956-3.685l-0.146-0.097l3.583-9.562l0.004,0.068l0.791-2.598
			l0.046-0.041c1.174-1.05,2.496-1.582,3.931-1.582c2.013,0,4.196,1.106,5.99,3.036c1.727,1.857,2.877,4.201,3.157,6.43
			c0.262,2.09-0.347,4.15-1.672,5.652c-0.957,1.084-2.727,2.377-5.727,2.377C259.108,106.029,259.107,106.029,259.107,106.029z
			 M249.54,102.075c3.533,2.333,6.751,3.515,9.567,3.515h0.001c2.245,0,4.112-0.771,5.397-2.229
			c1.242-1.407,1.813-3.342,1.565-5.307c-0.265-2.107-1.402-4.42-3.043-6.185c-1.711-1.841-3.776-2.896-5.668-2.896
			c-1.305,0-2.513,0.481-3.592,1.43l-1.073,3.525c-0.002,0.198,0.001,0.399,0.008,0.597l0,0c0.195,2.217,0.68,4.013,1.439,5.338
			c0.096,0.162,0.199,0.324,0.305,0.478c0.512,0.746,1.509,1.56,2.372,1.936c0.146,0.057,0.296,0.106,0.45,0.15l1.063-2.842
			c-2.604-0.892-3.271-2.979-3.042-4.527c0.115-0.774,0.454-1.487,0.954-2.007c0.544-0.564,1.229-0.863,1.979-0.863
			c0.821,0,2.108,0.371,3.579,2.138c0.883,1.061,1.449,2.163,1.683,3.278c0.214,1.018,0.134,2.014-0.231,2.881
			c-0.62,1.475-1.988,2.436-3.662,2.57c-0.84,0.068-1.623,0.01-2.328-0.174l0,0c-0.186-0.035-0.391-0.102-0.611-0.197l0,0
			c-1.194-0.465-2.167-1.34-2.891-2.602c-1.083-1.838-1.411-3.858-1.487-5.303L249.54,102.075z M257.7,102.529
			c0.571,0.111,1.193,0.141,1.856,0.088c1.506-0.122,2.736-0.982,3.292-2.304c0.718-1.707,0.214-3.788-1.384-5.707
			c-1.078-1.295-2.199-1.979-3.241-1.979c-1.253,0-2.28,1.026-2.499,2.495c-0.211,1.419,0.438,3.349,2.958,4.114l0.225,0.068
			L257.7,102.529z"/>
	</g>
	<linearGradient id="SVGID_5_" gradientUnits="userSpaceOnUse" x1="257.168" y1="94.6406" x2="261.4256" y2="95.9423">
		<stop  offset="0" style="stop-color:#BB862A"/>
		<stop  offset="0.02" style="stop-color:#BB862A"/>
		<stop  offset="0.08" style="stop-color:#B76C28"/>
		<stop  offset="0.36" style="stop-color:#F1EC8E"/>
		<stop  offset="0.6" style="stop-color:#ECE286"/>
		<stop  offset="0.86" style="stop-color:#B76C28"/>
		<stop  offset="0.98" style="stop-color:#DBB962"/>
		<stop  offset="1" style="stop-color:#DBB962"/>
	</linearGradient>
	
		<path fill-rule="evenodd" clip-rule="evenodd" fill="url(#SVGID_5_)" stroke="#C89347" stroke-width="0.216" stroke-miterlimit="22.9256" d="
		M260.105,87.738l-3.888,10.01c0.765,0.567,1.515,1.442,2.411,1.614c-0.376,1.055-0.753,2.109-1.129,3.165
		c0.578,0.239,1.156,0.281,1.732,0.125l4.227-13.359L260.105,87.738z"/>
	<linearGradient id="SVGID_6_" gradientUnits="userSpaceOnUse" x1="259.457" y1="81.9385" x2="266.8973" y2="84.2132">
		<stop  offset="0" style="stop-color:#BB862A"/>
		<stop  offset="0.02" style="stop-color:#BB862A"/>
		<stop  offset="0.08" style="stop-color:#B76C28"/>
		<stop  offset="0.36" style="stop-color:#F1EC8E"/>
		<stop  offset="0.6" style="stop-color:#ECE286"/>
		<stop  offset="0.86" style="stop-color:#B76C28"/>
		<stop  offset="0.98" style="stop-color:#DBB962"/>
		<stop  offset="1" style="stop-color:#DBB962"/>
	</linearGradient>
	
		<path fill-rule="evenodd" clip-rule="evenodd" fill="url(#SVGID_6_)" stroke="#C89347" stroke-width="0.216" stroke-linejoin="round" stroke-miterlimit="22.9256" d="
		M257.938,86.908l6.748,4.54c0.119-6.351,0.412-11.946,1.187-15.46C263.883,79.61,261.127,83.396,257.938,86.908z"/>
	<g>
		<path fill-rule="evenodd" clip-rule="evenodd" fill="#663100" d="M16.63,93.895l-1.1-3.614
			c-5.067-4.533-11.982,1.921-12.714,7.747c-0.728,5.795,5.448,11.855,17.017,4.135l-3.154-8.418
			c-0.237,4.296-1.597,9.54-7.147,9.092c-3.506-0.283-5.416-4.337-2.059-8.37c5.063-6.083,9.306,3.069,3.015,4.981l1.21,3.234
			c0.907-0.113,2.421-1.165,3.143-2.216C16.118,98.604,16.654,96.173,16.63,93.895z"/>
		<path fill="#EFEB8E" d="M9.997,105.957c-2.973,0-4.726-1.279-5.672-2.353c-1.312-1.486-1.914-3.526-1.654-5.596
			c0.278-2.214,1.422-4.542,3.138-6.388c1.78-1.916,3.944-3.014,5.937-3.014c1.417,0,2.723,0.526,3.883,1.563l0.03,0.027
			l0.905,2.974l0.007-0.133l3.44,9.18l-0.097,0.064C16.263,104.721,12.926,105.957,9.997,105.957z M11.745,88.9
			c-1.911,0-3.997,1.064-5.722,2.92c-1.65,1.775-2.795,4.103-3.062,6.225c-0.249,1.986,0.327,3.942,1.583,5.365
			c1.301,1.475,3.186,2.253,5.452,2.253c2.845,0,6.094-1.197,9.657-3.559l-2.876-7.676c-0.003,0.04-0.007,0.079-0.01,0.118l0,0
			c-0.053,1.447-0.354,3.575-1.49,5.503c-0.714,1.244-1.674,2.107-2.852,2.565c-0.218,0.094-0.42,0.16-0.601,0.193l0,0
			c-0.697,0.183-1.473,0.24-2.307,0.174c-1.645-0.133-2.991-1.078-3.601-2.527c-0.358-0.853-0.437-1.834-0.227-2.837
			c0.231-1.103,0.792-2.195,1.667-3.246c1.453-1.745,2.718-2.111,3.523-2.111c0.73,0,1.396,0.291,1.926,0.841
			c0.49,0.509,0.822,1.207,0.935,1.967c0.228,1.535-0.444,3.607-3.065,4.472l1.114,2.975c0.179-0.048,0.354-0.105,0.522-0.171
			c0.875-0.381,1.886-1.205,2.404-1.961c0.106-0.154,0.21-0.317,0.307-0.482c0.766-1.333,1.254-3.141,1.45-5.371
			c0.007-0.203,0.01-0.409,0.009-0.611l-1.083-3.556C14.305,89.393,13.075,88.9,11.745,88.9z M10.883,92.554
			c-1.065,0-2.205,0.693-3.298,2.006c-1.616,1.941-2.124,4.049-1.396,5.782c0.566,1.347,1.82,2.225,3.354,2.348
			c0.703,0.057,1.361,0.021,1.962-0.105l-1.21-3.232l0.149-0.045c2.565-0.779,3.224-2.747,3.009-4.195
			C13.229,93.605,12.172,92.554,10.883,92.554z"/>
	</g>
	<linearGradient id="SVGID_7_" gradientUnits="userSpaceOnUse" x1="7.7061" y1="95.9824" x2="11.8744" y2="94.6281">
		<stop  offset="0" style="stop-color:#BB862A"/>
		<stop  offset="0.02" style="stop-color:#BB862A"/>
		<stop  offset="0.08" style="stop-color:#B76C28"/>
		<stop  offset="0.36" style="stop-color:#F1EC8E"/>
		<stop  offset="0.6" style="stop-color:#ECE286"/>
		<stop  offset="0.86" style="stop-color:#B76C28"/>
		<stop  offset="0.98" style="stop-color:#DBB962"/>
		<stop  offset="1" style="stop-color:#DBB962"/>
	</linearGradient>
	
		<path fill-rule="evenodd" clip-rule="evenodd" fill="url(#SVGID_7_)" stroke="#C89347" stroke-width="0.216" stroke-miterlimit="22.9256" d="
		M9,87.738l3.888,10.01c-0.765,0.567-1.515,1.442-2.411,1.614c0.377,1.055,0.753,2.109,1.129,3.165
		c-0.578,0.239-1.155,0.281-1.732,0.125L5.646,89.293L9,87.738z"/>
	<linearGradient id="SVGID_8_" gradientUnits="userSpaceOnUse" x1="2.0923" y1="84.2832" x2="9.5303" y2="81.8664">
		<stop  offset="0" style="stop-color:#BB862A"/>
		<stop  offset="0.02" style="stop-color:#BB862A"/>
		<stop  offset="0.08" style="stop-color:#B76C28"/>
		<stop  offset="0.36" style="stop-color:#F1EC8E"/>
		<stop  offset="0.6" style="stop-color:#ECE286"/>
		<stop  offset="0.86" style="stop-color:#B76C28"/>
		<stop  offset="0.98" style="stop-color:#DBB962"/>
		<stop  offset="1" style="stop-color:#DBB962"/>
	</linearGradient>
	
		<path fill-rule="evenodd" clip-rule="evenodd" fill="url(#SVGID_8_)" stroke="#C89347" stroke-width="0.216" stroke-linejoin="round" stroke-miterlimit="22.9256" d="
		M11.168,86.908l-6.748,4.54c-0.118-6.351-0.412-11.946-1.186-15.46C5.223,79.61,7.979,83.396,11.168,86.908z"/>
	
		<rect x="-6.735" y="118.205" transform="matrix(0.3352 0.9421 -0.9421 0.3352 117.7963 69.7606)" fill="#EFEB8E" width="32.401" height="0.293"/>
	
		<rect x="259.709" y="102.529" transform="matrix(0.9497 0.3132 -0.3132 0.9497 50.1822 -75.4325)" fill="#EFEB8E" width="0.293" height="31.868"/>
	<linearGradient id="SVGID_9_" gradientUnits="userSpaceOnUse" x1="54.0771" y1="45.8682" x2="100.6016" y2="45.8682">
		<stop  offset="0" style="stop-color:#B76C28"/>
		<stop  offset="0.5" style="stop-color:#F1EC8E"/>
		<stop  offset="1" style="stop-color:#B76C28"/>
	</linearGradient>
	<path fill-rule="evenodd" clip-rule="evenodd" fill="url(#SVGID_9_)" d="M81.083,55.754h-7.725v-2.393h6.622l-6.518-15.086
		l-0.104,0.235v-6.059l4.009-8.942h0.617l15.791,35.928c1.511,3.408,2.746,5.547,3.717,6.43c0.738,0.672,1.775,1.059,3.109,1.168
		v1.191H79.406v-1.191h0.871c1.699,0,2.9-0.242,3.584-0.717c0.475-0.342,0.717-0.838,0.717-1.488c0-0.386-0.065-0.783-0.198-1.191
		c-0.044-0.198-0.363-1.003-0.97-2.426L81.083,55.754L81.083,55.754z M73.358,55.754v-2.393h-6.622l6.622-14.851v-6.059
		L61.697,58.467c-1.479,3.342-2.735,5.547-3.75,6.605c-1.003,1.07-2.305,1.721-3.87,1.963v1.191h14.567v-1.191
		c-2.283-0.176-3.717-0.43-4.29-0.782c-0.992-0.573-1.489-1.478-1.489-2.713c0-0.927,0.298-2.095,0.904-3.519l1.842-4.268H73.358
		L73.358,55.754z"/>
	<linearGradient id="SVGID_10_" gradientUnits="userSpaceOnUse" x1="133.7305" y1="45.8682" x2="180.2549" y2="45.8682">
		<stop  offset="0" style="stop-color:#B76C28"/>
		<stop  offset="0.32" style="stop-color:#F1EC8E"/>
		<stop  offset="0.83" style="stop-color:#B76C28"/>
		<stop  offset="1" style="stop-color:#B76C28"/>
	</linearGradient>
	<path fill-rule="evenodd" clip-rule="evenodd" fill="url(#SVGID_10_)" d="M160.736,55.754h-7.725v-2.393h6.622l-6.517-15.086
		l-0.105,0.235v-6.059l4.009-8.942h0.617l15.792,35.928c1.51,3.408,2.745,5.547,3.716,6.43c0.739,0.672,1.775,1.059,3.109,1.168
		v1.191h-21.194v-1.191h0.871c1.698,0,2.9-0.242,3.584-0.717c0.475-0.342,0.717-0.838,0.717-1.488c0-0.386-0.066-0.783-0.199-1.191
		c-0.043-0.198-0.363-1.003-0.97-2.426L160.736,55.754L160.736,55.754z M153.012,55.754v-2.393h-6.622l6.622-14.851v-6.059
		l-11.661,26.015c-1.478,3.342-2.735,5.547-3.749,6.605c-1.004,1.07-2.305,1.721-3.871,1.963v1.191h14.567v-1.191
		c-2.283-0.176-3.716-0.43-4.29-0.782c-0.992-0.573-1.488-1.478-1.488-2.713c0-0.927,0.298-2.095,0.904-3.519l1.842-4.268H153.012
		L153.012,55.754z"/>
	<linearGradient id="SVGID_11_" gradientUnits="userSpaceOnUse" x1="103.0684" y1="52.4058" x2="131.4844" y2="52.4058">
		<stop  offset="0" style="stop-color:#B76C28"/>
		<stop  offset="0.5" style="stop-color:#F1EC8E"/>
		<stop  offset="1" style="stop-color:#B76C28"/>
	</linearGradient>
	<path fill-rule="evenodd" clip-rule="evenodd" fill="url(#SVGID_11_)" d="M131.484,36.585v8.569h-0.836
		c-0.502-1.982-1.052-3.4-1.657-4.261c-0.605-0.868-1.441-1.553-2.501-2.063c-0.589-0.286-1.624-0.422-3.098-0.422h-2.357v24.401
		c0,1.617,0.088,2.629,0.263,3.035c0.184,0.406,0.534,0.756,1.052,1.059c0.525,0.311,1.234,0.462,2.134,0.462h1.052v0.86H108.97
		v-0.86h1.052c0.916,0,1.656-0.167,2.214-0.493c0.405-0.215,0.725-0.59,0.955-1.123c0.176-0.366,0.263-1.346,0.263-2.939V38.409
		h-2.293c-2.127,0-3.68,0.446-4.644,1.354c-1.354,1.259-2.206,3.059-2.563,5.392h-0.885v-8.569H131.484z"/>
	<linearGradient id="SVGID_12_" gradientUnits="userSpaceOnUse" x1="183.3203" y1="53.1245" x2="209.875" y2="53.1245">
		<stop  offset="0" style="stop-color:#B76C28"/>
		<stop  offset="0.5" style="stop-color:#F1EC8E"/>
		<stop  offset="1" style="stop-color:#B76C28"/>
	</linearGradient>
	<path fill-rule="evenodd" clip-rule="evenodd" fill="url(#SVGID_12_)" d="M183.32,67.035c1.246-0.088,2.117-0.418,2.613-0.992
		c0.497-0.573,0.75-1.709,0.75-3.407V43.447c0-1.532-0.231-2.591-0.694-3.187c-0.463-0.585-1.356-0.938-2.669-1.048v-1.19h26.555
		v7.884h-1.191c-0.496-2.459-1.18-4.047-2.04-4.774c-0.86-0.717-2.503-1.081-4.94-1.081h-5.977v22.783
		c0,1.5,0.242,2.569,0.738,3.198c0.497,0.617,1.5,0.96,3.011,1.003v1.191H183.32V67.035z"/>
	<path fill="#EFEB8E" d="M17.938,136.728c-1.106,0-2.086-0.138-2.936-0.415l0.091-0.278c2.096,0.683,5.029,0.493,8.719-0.563
		c3.481-0.996,7.76-2.801,12.716-5.364l0.006-0.003c15.555-7.156,30.465-12.485,45.581-16.293
		c8.289-2.088,16.751-3.728,25.149-4.874c8.862-1.209,17.964-1.911,27.053-2.087c0.945-0.019,1.903-0.028,2.868-0.028
		c14.034,0,30.05,1.988,46.536,5.789c8.504,1.96,16.909,4.354,24.98,7.116c8.164,2.794,15.832,5.91,22.792,9.265
		c0.947,0.456,1.968,0.98,3.048,1.536c5.837,3.002,13.102,6.737,19.736,5.562l0.052,0.289c-2.993,0.53-6.376,0.124-10.342-1.242
		c-3.414-1.176-6.69-2.861-9.581-4.348c-1.078-0.555-2.097-1.078-3.04-1.533c-28.663-13.813-67.663-22.698-97.044-22.112
		c-33.603,0.65-64.637,8.031-97.666,23.228c-4.97,2.57-9.265,4.381-12.764,5.383C21.624,136.402,19.633,136.728,17.938,136.728z"/>
	
		<line fill-rule="evenodd" clip-rule="evenodd" fill="none" stroke="#EFEB8E" stroke-width="0.5669" stroke-miterlimit="22.9256" x1="19.833" y1="102.162" x2="36.017" y2="94.776"/>
	<path fill="#EFEB8E" d="M249.268,102.175c-2.718-1.132-5.473-2.479-8.389-3.906c-2.611-1.278-5.313-2.6-8.187-3.862
		c-26.638-11.709-65.975-20.037-97.886-20.724c-35.821,1.215-69.058,8.316-98.784,21.107l-0.012-0.027
		c7.268-3.127,14.814-5.946,22.431-8.379c7.743-2.473,15.782-4.618,23.896-6.377c8.241-1.786,16.797-3.225,25.431-4.276
		c8.764-1.066,17.861-1.766,27.039-2.077c7.565,0.163,15.707,0.764,24.199,1.785c8.479,1.021,17.115,2.438,25.669,4.212
		c17.99,3.731,34.599,8.824,48.029,14.729c2.874,1.264,5.575,2.585,8.188,3.863c2.916,1.427,5.67,2.774,8.387,3.906L249.268,102.175
		z"/>
	<g>
		<g>
			<linearGradient id="SVGID_13_" gradientUnits="userSpaceOnUse" x1="70.8359" y1="96.209" x2="95.3135" y2="96.209">
				<stop  offset="0" style="stop-color:#B76C28"/>
				<stop  offset="0.32" style="stop-color:#F1EC8E"/>
				<stop  offset="0.5" style="stop-color:#F1EC8E"/>
				<stop  offset="0.74" style="stop-color:#F1EC8E"/>
				<stop  offset="1" style="stop-color:#B76C28"/>
			</linearGradient>
			<path fill-rule="evenodd" clip-rule="evenodd" fill="url(#SVGID_13_)" d="M70.949,93.061c-0.045-0.14-0.068-0.209-0.113-0.349
				c2.129-0.688,4.268-1.345,6.416-1.971c0.041,0.141,0.061,0.212,0.102,0.353c-0.1,0.028-0.149,0.043-0.25,0.072
				c-0.513,0.149-0.831,0.375-0.914,0.65c-0.143,0.478,0.047,1.089,0.195,1.564c0.864,2.902,1.729,5.804,2.593,8.705
				c0.16,0.538,0.324,0.843,0.49,0.914c0.167,0.07,0.546,0.018,1.141-0.154c0.493-0.143,0.739-0.214,1.233-0.354
				c0.777-0.221,1.194-0.401,1.248-0.55c0.055-0.148,0.012-0.48-0.131-0.996c-0.803-2.92-1.605-5.839-2.408-8.759
				c-0.125-0.482-0.289-1.101-0.662-1.431c-0.216-0.19-0.609-0.212-1.13-0.065c-0.096,0.027-0.144,0.041-0.239,0.068
				c-0.04-0.142-0.061-0.212-0.1-0.353c2.147-0.604,4.303-1.179,6.468-1.721c0.036,0.143,0.054,0.214,0.089,0.356
				c-0.101,0.024-0.15,0.037-0.252,0.063c-0.517,0.129-0.844,0.34-0.937,0.609c-0.163,0.472,0.006,1.094,0.138,1.575
				c0.734,2.862,1.47,5.725,2.205,8.587c0.162,0.634,0.296,1.01,0.4,1.13c0.104,0.12,0.521,0.085,1.25-0.097
				c0.523-0.131,1.046-0.259,1.57-0.385c0.612-0.147,0.934-0.305,0.962-0.479c0.029-0.173-0.018-0.52-0.14-1.041
				c-0.684-2.915-1.367-5.831-2.051-8.746c-0.107-0.486-0.248-1.098-0.604-1.445c-0.211-0.205-0.602-0.246-1.126-0.119
				c-0.097,0.023-0.145,0.035-0.241,0.059c-0.035-0.143-0.052-0.214-0.087-0.356c2.161-0.521,4.329-1.009,6.504-1.467
				c0.03,0.144,0.045,0.215,0.075,0.358c-0.097,0.021-0.146,0.03-0.243,0.051c-0.527,0.111-0.863,0.313-0.965,0.586
				c-0.176,0.466-0.037,1.084,0.075,1.569c0.626,2.888,1.252,5.776,1.878,8.664c0.1,0.484,0.221,1.06,0.53,1.441
				c0.182,0.224,0.558,0.279,1.092,0.167c0.091-0.019,0.137-0.028,0.228-0.047c0.03,0.143,0.045,0.215,0.075,0.358
				c-6.868,1.447-13.647,3.251-20.327,5.407c-0.045-0.139-0.067-0.209-0.113-0.349c0.09-0.028,0.134-0.043,0.224-0.072
				c0.588-0.19,0.891-0.457,0.893-0.79c0.003-0.518-0.157-1.052-0.318-1.547c-0.878-2.773-1.755-5.547-2.633-8.319
				c-0.144-0.478-0.332-1.098-0.724-1.407c-0.226-0.179-0.618-0.184-1.128-0.019C71.092,93.015,71.044,93.029,70.949,93.061z"/>
			<linearGradient id="SVGID_14_" gradientUnits="userSpaceOnUse" x1="99.3389" y1="91.3779" x2="113.4756" y2="91.3779">
				<stop  offset="0" style="stop-color:#B76C28"/>
				<stop  offset="0.32" style="stop-color:#F1EC8E"/>
				<stop  offset="0.5" style="stop-color:#F1EC8E"/>
				<stop  offset="0.74" style="stop-color:#F1EC8E"/>
				<stop  offset="1" style="stop-color:#B76C28"/>
			</linearGradient>
			<path fill-rule="evenodd" clip-rule="evenodd" fill="url(#SVGID_14_)" d="M104.951,85.515c0.264,1.804,0.529,3.606,0.794,5.41
				c0.112-0.017,0.167-0.024,0.279-0.041c0.722-0.095,1.46-0.411,1.826-1.066c0.417-0.748,0.45-1.608,0.46-2.45
				c0.16-0.021,0.239-0.031,0.399-0.052c0.302,2.324,0.603,4.649,0.904,6.975c-0.154,0.02-0.231,0.03-0.386,0.05
				c-0.149-0.634-0.381-1.269-0.764-1.797c-0.324-0.448-0.684-0.742-1.053-0.852c-0.512-0.151-1.026-0.084-1.559-0.031
				c0.183,1.248,0.366,2.495,0.55,3.743c0.107,0.732,0.205,1.175,0.292,1.329c0.088,0.154,0.226,0.271,0.414,0.35
				c0.189,0.08,0.477,0.092,0.864,0.037c0.324-0.045,0.486-0.067,0.811-0.111c1.082-0.188,2.135-0.479,2.948-1.256
				c0.801-0.764,1.14-1.771,1.365-2.829c0.151-0.017,0.227-0.025,0.378-0.042c-0.053,1.438-0.102,2.875-0.146,4.312
				c-3.911,0.446-7.804,1.005-11.683,1.674c-0.025-0.145-0.038-0.217-0.063-0.361c0.18-0.031,0.269-0.047,0.448-0.077
				c0.392-0.067,0.696-0.195,0.912-0.366c0.152-0.12,0.261-0.304,0.321-0.535c0.043-0.166,0.017-0.585-0.093-1.249
				c-0.477-2.906-0.954-5.813-1.432-8.72c-0.098-0.6-0.174-0.97-0.233-1.096c-0.101-0.214-0.271-0.37-0.479-0.463
				c-0.297-0.133-0.682-0.167-1.148-0.087c-0.191,0.033-0.286,0.049-0.477,0.082c-0.025-0.144-0.038-0.216-0.063-0.36
				c4.016-0.693,8.047-1.274,12.095-1.744c0.15,1.315,0.301,2.631,0.451,3.946c-0.159,0.018-0.238,0.027-0.398,0.046
				c-0.23-0.707-0.547-1.473-1.104-1.974c-0.46-0.414-1.079-0.643-1.69-0.729c-0.74-0.104-1.517,0.029-2.255,0.122
				C105.941,85.371,105.446,85.442,104.951,85.515z"/>
			<linearGradient id="SVGID_15_" gradientUnits="userSpaceOnUse" x1="119.3965" y1="89.4688" x2="134.5674" y2="89.4688">
				<stop  offset="0" style="stop-color:#B76C28"/>
				<stop  offset="0.32" style="stop-color:#F1EC8E"/>
				<stop  offset="0.5" style="stop-color:#F1EC8E"/>
				<stop  offset="0.74" style="stop-color:#F1EC8E"/>
				<stop  offset="1" style="stop-color:#B76C28"/>
			</linearGradient>
			<path fill-rule="evenodd" clip-rule="evenodd" fill="url(#SVGID_15_)" d="M119.396,83.135c2.521-0.187,5.045-0.33,7.571-0.433
				c0.005,0.146,0.008,0.22,0.014,0.366c-0.099,0.004-0.147,0.006-0.246,0.01c-0.473,0.01-1.106,0.074-1.413,0.424
				c-0.319,0.363-0.283,0.895-0.291,1.387c0.064,1.336,0.129,2.672,0.194,4.008c0.63-0.029,1.29-0.039,1.892-0.178
				c0.284-0.065,0.564-0.268,0.794-0.574c0.372-0.5,0.511-1.161,0.666-1.762c0.198-0.771,0.391-1.559,0.733-2.281
				c0.233-0.492,0.597-0.92,1.05-1.221c0.505-0.336,1.129-0.463,1.726-0.473c0.586-0.01,1.199,0.139,1.658,0.523
				c0.393,0.33,0.626,0.814,0.625,1.329c0,0.408-0.135,0.733-0.41,0.973c-0.273,0.239-0.623,0.353-1.023,0.364
				c-0.77,0.021-1.273-0.549-1.323-1.29c-0.029-0.429-0.203-0.65-0.503-0.645c-0.32,0.006-0.599,0.182-0.811,0.522
				c-0.342,0.549-0.511,1.208-0.687,1.83c-0.184,0.645-0.355,1.307-0.599,1.934c-0.166,0.431-0.737,1.1-0.737,1.1
				c0.014,0.048,0.793,0.219,1.036,0.384c0.244,0.165,0.471,0.383,0.666,0.651c0.47,0.646,0.87,1.363,1.281,2.057
				c0.485,0.803,0.966,1.607,1.442,2.415c0.221,0.36,0.48,0.627,0.78,0.8c0.301,0.172,0.662,0.258,1.084,0.257
				c0,0.146,0.001,0.22,0.001,0.366c-1.521,0.006-3.04,0.027-4.56,0.064c-0.983-1.696-1.986-3.381-3.008-5.055
				c-0.354-0.567-0.611-0.908-0.772-1.023s-0.48-0.172-0.958-0.168c0.073,1.514,0.147,3.027,0.221,4.541
				c0.031,0.646,0.191,1.063,0.468,1.217c0.433,0.24,1.023,0.229,1.516,0.203c0.006,0.146,0.009,0.22,0.015,0.366
				c-2.363,0.097-4.723,0.23-7.082,0.404c-0.011-0.146-0.017-0.219-0.027-0.365c0.5-0.038,1.171-0.105,1.519-0.451
				c0.321-0.319,0.316-0.951,0.276-1.403c-0.195-2.988-0.392-5.977-0.587-8.965c-0.026-0.516-0.081-1.184-0.413-1.562
				c-0.313-0.354-0.978-0.351-1.439-0.306c-0.125,0.01-0.187,0.014-0.311,0.023C119.412,83.354,119.407,83.281,119.396,83.135z"/>
			<linearGradient id="SVGID_16_" gradientUnits="userSpaceOnUse" x1="141.0381" y1="89.7344" x2="155.0625" y2="89.7344">
				<stop  offset="0" style="stop-color:#B76C28"/>
				<stop  offset="0.32" style="stop-color:#F1EC8E"/>
				<stop  offset="0.5" style="stop-color:#F1EC8E"/>
				<stop  offset="0.74" style="stop-color:#F1EC8E"/>
				<stop  offset="1" style="stop-color:#B76C28"/>
			</linearGradient>
			<path fill-rule="evenodd" clip-rule="evenodd" fill="url(#SVGID_16_)" d="M155.063,83.207c-0.149,1.545-0.299,3.089-0.449,4.634
				c-0.163-0.016-0.244-0.023-0.408-0.039c-0.169-1.11-0.638-2.177-1.479-2.938c-0.779-0.706-1.776-1.122-2.822-1.197
				c-0.879-0.063-1.765,0.129-2.534,0.558c-0.744,0.414-1.364,1.034-1.75,1.797c-0.525,1.037-0.769,2.17-0.827,3.291
				c-0.057,1.087,0.008,2.25,0.311,3.304c0.249,0.865,0.626,1.7,1.341,2.314c0.719,0.619,1.634,0.862,2.511,0.924
				c0.817,0.057,1.623-0.072,2.404-0.37c0.91-0.348,1.7-1.035,2.443-1.7c-0.045,0.462-0.066,0.692-0.11,1.154
				c-0.783,0.618-1.591,1.172-2.544,1.488c-0.954,0.315-1.963,0.373-2.931,0.309c-1.308-0.086-2.634-0.412-3.819-1.085
				c-1.068-0.607-1.984-1.507-2.53-2.583c-0.558-1.101-0.84-2.234-0.83-3.467c0.01-1.264,0.462-2.539,1.181-3.608
				c0.769-1.142,1.829-2.003,3.025-2.549c1.241-0.565,2.596-0.79,3.983-0.718c1.103,0.058,2.183,0.414,3.188,0.859
				c0.632,0.279,1.041,0.448,1.219,0.465c0.229,0.02,0.433-0.039,0.614-0.178s0.313-0.374,0.396-0.704
				C154.812,83.183,154.896,83.19,155.063,83.207z"/>
			<linearGradient id="SVGID_17_" gradientUnits="userSpaceOnUse" x1="160.4063" y1="92.2773" x2="178.2305" y2="92.2773">
				<stop  offset="0" style="stop-color:#B76C28"/>
				<stop  offset="0.32" style="stop-color:#F1EC8E"/>
				<stop  offset="0.5" style="stop-color:#F1EC8E"/>
				<stop  offset="0.74" style="stop-color:#F1EC8E"/>
				<stop  offset="1" style="stop-color:#B76C28"/>
			</linearGradient>
			<path fill-rule="evenodd" clip-rule="evenodd" fill="url(#SVGID_17_)" d="M166.574,92.016c-0.219,1.369-0.436,2.738-0.654,4.108
				c-0.107,0.679-0.137,1.108-0.088,1.29c0.05,0.182,0.176,0.354,0.379,0.518c0.201,0.163,0.492,0.275,0.87,0.339
				c0.18,0.03,0.27,0.045,0.448,0.075c-0.024,0.145-0.036,0.217-0.061,0.361c-2.349-0.394-4.703-0.748-7.063-1.063
				c0.019-0.146,0.028-0.219,0.048-0.364c0.18,0.024,0.27,0.036,0.45,0.06c0.393,0.053,0.721,0.021,0.978-0.076
				c0.182-0.068,0.34-0.212,0.467-0.414c0.091-0.146,0.19-0.554,0.286-1.221c0.413-2.916,0.827-5.832,1.24-8.748
				c0.097-0.68,0.118-1.11,0.064-1.291c-0.054-0.182-0.19-0.353-0.41-0.513c-0.22-0.161-0.532-0.269-0.937-0.323
				c-0.192-0.025-0.288-0.038-0.479-0.063c0.02-0.146,0.029-0.218,0.048-0.363c2.523,0.337,5.04,0.716,7.551,1.137
				c-0.024,0.145-0.037,0.217-0.062,0.361c-0.19-0.032-0.286-0.048-0.477-0.08c-0.418-0.069-0.769-0.05-1.042,0.039
				c-0.194,0.063-0.368,0.198-0.511,0.399c-0.101,0.145-0.206,0.549-0.313,1.215c-0.199,1.252-0.398,2.504-0.598,3.756
				c1.649,0.266,3.296,0.549,4.939,0.85c0.23-1.247,0.461-2.494,0.69-3.74c0.125-0.676,0.165-1.105,0.118-1.288
				c-0.046-0.183-0.178-0.36-0.395-0.53s-0.526-0.292-0.93-0.363c-0.187-0.033-0.279-0.049-0.466-0.082
				c0.024-0.145,0.038-0.217,0.063-0.361c2.509,0.442,5.008,0.926,7.499,1.452c-0.03,0.144-0.045,0.215-0.076,0.358
				c-0.186-0.039-0.278-0.059-0.464-0.098c-0.422-0.089-0.774-0.082-1.044-0.005c-0.196,0.056-0.377,0.182-0.527,0.378
				c-0.106,0.139-0.229,0.539-0.363,1.199c-0.584,2.887-1.168,5.773-1.752,8.66c-0.137,0.674-0.185,1.102-0.146,1.285
				c0.039,0.183,0.158,0.36,0.357,0.533c0.198,0.172,0.486,0.297,0.862,0.376c0.175,0.036,0.262,0.055,0.436,0.092
				c-0.03,0.144-0.046,0.216-0.076,0.358c-2.331-0.491-4.669-0.943-7.015-1.357c0.025-0.145,0.038-0.217,0.063-0.361
				c0.175,0.031,0.263,0.047,0.438,0.077c0.398,0.07,0.729,0.052,0.982-0.035c0.183-0.063,0.353-0.192,0.494-0.393
				c0.1-0.143,0.214-0.545,0.337-1.207c0.251-1.364,0.504-2.728,0.756-4.091C169.855,92.561,168.217,92.279,166.574,92.016z"/>
			<linearGradient id="SVGID_18_" gradientUnits="userSpaceOnUse" x1="181.0049" y1="97.8301" x2="195.165" y2="97.8301">
				<stop  offset="0" style="stop-color:#B76C28"/>
				<stop  offset="0.32" style="stop-color:#F1EC8E"/>
				<stop  offset="0.5" style="stop-color:#F1EC8E"/>
				<stop  offset="0.74" style="stop-color:#F1EC8E"/>
				<stop  offset="1" style="stop-color:#B76C28"/>
			</linearGradient>
			<path fill-rule="evenodd" clip-rule="evenodd" fill="url(#SVGID_18_)" d="M190.254,100.011c-1.586-0.458-3.177-0.897-4.771-1.321
				c-0.361,0.446-0.541,0.67-0.899,1.117c-0.295,0.373-0.478,0.697-0.548,0.973c-0.095,0.364-0.012,0.672,0.243,0.923
				c0.15,0.147,0.565,0.339,1.245,0.576c-0.038,0.142-0.058,0.212-0.096,0.354c-1.471-0.392-2.944-0.77-4.423-1.133
				c0.034-0.143,0.052-0.214,0.087-0.356c0.496,0.047,0.946-0.048,1.326-0.289c0.65-0.414,1.152-1.08,1.647-1.672
				c2.516-3.061,5.097-6.063,7.744-9.009c0.079,0.022,0.119,0.034,0.198,0.056c0.688,3.999,1.29,8.01,1.805,12.035
				c0.106,0.736,0.162,1.587,0.53,2.234c0.149,0.264,0.432,0.479,0.822,0.64c-0.045,0.14-0.067,0.21-0.113,0.349
				c-2.114-0.683-4.237-1.333-6.371-1.949c0.04-0.142,0.061-0.212,0.102-0.353c0.105,0.03,0.158,0.045,0.264,0.075
				c0.514,0.149,0.899,0.188,1.145,0.107c0.172-0.056,0.288-0.183,0.345-0.373c0.033-0.113,0.043-0.242,0.045-0.369
				c0.001-0.058-0.023-0.327-0.084-0.799C190.417,101.221,190.336,100.615,190.254,100.011L190.254,100.011z M190.119,99.209
				L190.119,99.209c-0.247-1.679-0.508-3.354-0.783-5.028c-1.117,1.288-2.223,2.586-3.316,3.894
				C187.39,98.439,188.756,98.818,190.119,99.209z"/>
		</g>
	</g>
</g>
</svg>
